<?xml version="1.0" encoding="utf-8"?>
<!-- Generator: Adobe Illustrator 28.1.0, SVG Export Plug-In . SVG Version: 6.00 Build 0)  -->
<svg version="1.1" id="Calque_1" xmlns="http://www.w3.org/2000/svg" xmlns:xlink="http://www.w3.org/1999/xlink" x="0px" y="0px"
	 viewBox="0 0 1600 1600" style="enable-background:new 0 0 1600 1600;" xml:space="preserve">
<style type="text/css">
	.st0{fill:url(#SVGID_1_);}
	.st1{fill:url(#SVGID_00000150800874409344448110000011136644516730540180_);}
	.st2{fill:#FFFFFF;}
</style>
<g>
	
		<radialGradient id="SVGID_1_" cx="-841.91" cy="861.3538" r="632.9282" gradientTransform="matrix(0 -1.982 -1.8439 0 2091.4658 -138.41)" gradientUnits="userSpaceOnUse">
		<stop  offset="0" style="stop-color:#FFDD55"/>
		<stop  offset="0.1" style="stop-color:#FFDD55"/>
		<stop  offset="0.5" style="stop-color:#FF543E"/>
		<stop  offset="1" style="stop-color:#C837AB"/>
	</radialGradient>
	<path class="st0" d="M800.2,167c-264.3,0-341.6,0.3-356.6,1.5c-54.2,4.5-88,13-124.8,31.4c-28.3,14.1-50.7,30.4-72.7,53.2
		c-40.2,41.7-64.5,93-73.3,154c-4.3,29.6-5.5,35.6-5.8,186.8c-0.1,50.4,0,116.7,0,205.7c0,264.1,0.3,341.3,1.6,356.3
		c4.4,52.8,12.7,86,30.2,122.3c33.5,69.5,97.5,121.7,172.8,141.2c26.1,6.7,54.9,10.4,91.9,12.2c15.7,0.7,175.5,1.2,335.4,1.2
		s319.8-0.2,335.1-1c42.8-2,67.7-5.4,95.2-12.5c75.9-19.6,138.7-71,172.8-141.5c17.2-35.4,25.9-69.9,29.8-119.9
		c0.9-10.9,1.2-184.8,1.2-358.4c0-173.7-0.4-347.2-1.2-358.1c-4-50.8-12.7-85-30.4-121.1c-14.6-29.6-30.7-51.7-54.2-74.2
		c-41.9-40-93.1-64.3-154.1-73.1c-29.6-4.3-35.5-5.5-186.8-5.8H800.2z"/>
	
		<radialGradient id="SVGID_00000089538640627207181400000004265831333952985529_" cx="481.9033" cy="1350.4004" r="632.9282" gradientTransform="matrix(0.1739 0.8687 3.5818 -0.7172 -4965.8555 808.0235)" gradientUnits="userSpaceOnUse">
		<stop  offset="0" style="stop-color:#3771C8"/>
		<stop  offset="0.128" style="stop-color:#3771C8"/>
		<stop  offset="1" style="stop-color:#6600FF;stop-opacity:0"/>
	</radialGradient>
	<path style="fill:url(#SVGID_00000089538640627207181400000004265831333952985529_);" d="M800.2,167c-264.3,0-341.6,0.3-356.6,1.5
		c-54.2,4.5-88,13-124.8,31.4c-28.3,14.1-50.7,30.4-72.7,53.2c-40.2,41.7-64.5,93-73.3,154c-4.3,29.6-5.5,35.6-5.8,186.8
		c-0.1,50.4,0,116.7,0,205.7c0,264.1,0.3,341.3,1.6,356.3c4.4,52.8,12.7,86,30.2,122.3c33.5,69.5,97.5,121.7,172.8,141.2
		c26.1,6.7,54.9,10.4,91.9,12.2c15.7,0.7,175.5,1.2,335.4,1.2s319.8-0.2,335.1-1c42.8-2,67.7-5.4,95.2-12.5
		c75.9-19.6,138.7-71,172.8-141.5c17.2-35.4,25.9-69.9,29.8-119.9c0.9-10.9,1.2-184.8,1.2-358.4c0-173.7-0.4-347.2-1.2-358.1
		c-4-50.8-12.7-85-30.4-121.1c-14.6-29.6-30.7-51.7-54.2-74.2c-41.9-40-93.1-64.3-154.1-73.1c-29.6-4.3-35.5-5.5-186.8-5.8H800.2z"
		/>
	<path class="st2" d="M799.9,332.5c-126.9,0-142.9,0.6-192.7,2.8c-49.8,2.3-83.7,10.2-113.4,21.7C463,369,436.9,385,410.9,411
		c-26,26-42,52.1-53.9,82.8c-11.6,29.7-19.5,63.7-21.7,113.4c-2.2,49.9-2.8,65.8-2.8,192.7s0.6,142.8,2.8,192.7
		c2.3,49.8,10.2,83.7,21.7,113.4c11.9,30.7,27.9,56.8,53.9,82.8c26,26,52,42,82.8,53.9c29.7,11.6,63.7,19.4,113.5,21.7
		c49.9,2.3,65.8,2.8,192.7,2.8c126.9,0,142.8-0.6,192.7-2.8c49.8-2.3,83.8-10.2,113.5-21.7c30.7-11.9,56.8-27.9,82.7-53.9
		c26-26,42-52.1,53.9-82.8c11.5-29.7,19.4-63.7,21.7-113.4c2.2-49.9,2.8-65.7,2.8-192.7s-0.6-142.9-2.8-192.7
		c-2.3-49.8-10.2-83.7-21.7-113.4c-12-30.7-27.9-56.8-53.9-82.8c-26-26-52-42-82.8-53.9c-29.8-11.6-63.8-19.4-113.5-21.7
		c-49.9-2.3-65.7-2.8-192.7-2.8H799.9z M757.9,416.8c12.4,0,26.3,0,41.9,0c124.8,0,139.6,0.4,188.9,2.7c45.6,2.1,70.3,9.7,86.8,16.1
		c21.8,8.5,37.4,18.6,53.7,35c16.4,16.4,26.5,31.9,35,53.8c6.4,16.5,14,41.2,16.1,86.8c2.2,49.3,2.7,64.1,2.7,188.8
		s-0.5,139.5-2.7,188.8c-2.1,45.6-9.7,70.3-16.1,86.8c-8.5,21.8-18.6,37.3-35,53.7c-16.4,16.4-31.9,26.5-53.7,35
		c-16.5,6.4-41.2,14-86.8,16.1c-49.3,2.2-64.1,2.7-188.9,2.7c-124.8,0-139.6-0.5-188.9-2.7c-45.6-2.1-70.3-9.7-86.8-16.1
		c-21.8-8.5-37.4-18.6-53.8-35c-16.4-16.4-26.5-31.9-35-53.7c-6.4-16.5-14-41.2-16.1-86.8c-2.2-49.3-2.7-64.1-2.7-188.9
		s0.4-139.5,2.7-188.8c2.1-45.6,9.7-70.3,16.1-86.8c8.5-21.8,18.6-37.4,35-53.8c16.4-16.4,31.9-26.5,53.8-35
		c16.5-6.4,41.2-14,86.8-16.1c43.1-1.9,59.8-2.5,146.9-2.6L757.9,416.8z M1049.4,494.4c-31,0-56.1,25.1-56.1,56.1
		c0,31,25.1,56.1,56.1,56.1c31,0,56.1-25.1,56.1-56.1C1105.4,519.5,1080.3,494.4,1049.4,494.4L1049.4,494.4z M799.9,559.9
		c-132.6,0-240,107.5-240,240s107.5,240,240,240s240-107.4,240-240S932.4,559.9,799.9,559.9L799.9,559.9z M799.9,644.1
		c86,0,155.8,69.7,155.8,155.8c0,86-69.8,155.8-155.8,155.8c-86,0-155.8-69.8-155.8-155.8C644.1,713.9,713.8,644.1,799.9,644.1z"/>
</g>
</svg>
